<?xml version="1.0" encoding="iso-8859-1"?>
<!-- Generator: Adobe Illustrator 19.0.0, SVG Export Plug-In . SVG Version: 6.00 Build 0)  -->
<svg xmlns="http://www.w3.org/2000/svg" xmlns:xlink="http://www.w3.org/1999/xlink" version="1.1" id="Layer_1" x="0px" y="0px" viewBox="0 0 480 480" style="enable-background:new 0 0 480 480;" xml:space="preserve" width="512px" height="512px">
<g>
	<g>
		<path d="M462.46,75.41h-80.492V10c0-5.523-4.477-10-10-10s-10,4.477-10,10v65.41H118.033V10c0-5.523-4.477-10-10-10    s-10,4.477-10,10v65.41H17.541c-5.523,0-10,4.477-10,10V470c0,5.523,4.477,10,10,10H462.46c5.523,0,10-4.477,10-10V85.41    C472.46,79.887,467.982,75.41,462.46,75.41z M452.46,460H27.541V208.524H452.46V460z M452.46,188.525H27.541V95.41h70.492v35.246    c0,5.523,4.477,10,10,10s10-4.477,10-10V95.41h243.935v35.246c0,5.523,4.477,10,10,10s10-4.477,10-10V95.41h70.492V188.525z" fill="#5c5c5c"/>
	</g>
</g>
<g>
</g>
<g>
</g>
<g>
</g>
<g>
</g>
<g>
</g>
<g>
</g>
<g>
</g>
<g>
</g>
<g>
</g>
<g>
</g>
<g>
</g>
<g>
</g>
<g>
</g>
<g>
</g>
<g>
</g>
</svg>
