<svg xmlns="http://www.w3.org/2000/svg" viewBox="0 0 327.41 127.28"><defs><style>.cls-1{opacity:.75}.cls-2{fill:#242323}.cls-3{fill:#f03345}.cls-4{fill:#2e2d2d}.cls-5{fill:#fff}</style></defs><title>Asset 4</title><g id="Layer_2" data-name="Layer 2"><g id="Layer_2-2" data-name="Layer 2"><g class="cls-1"><path class="cls-2" transform="rotate(-45 63.64 63.64)" d="M18.64 18.64h90v90h-90z"/></g><path class="cls-3" d="M74.09 62.35v-.16a13.67 13.67 0 0 0 6.51-11.91c0-9.63-7.85-14.65-19.08-14.65H44.39v56h17.14c11.15 0 21.36-4.46 21.36-16.68 0-4.95-2.36-10.64-8.8-12.6z"/><path class="cls-4" d="M67.89 71.35a4.65 4.65 0 0 0-1.64.3l-6.39-6.93a4.63 4.63 0 0 0 0-3.93l6.31-6.67a4.68 4.68 0 1 0-2.54-2.41l-6.31 6.67a4.67 4.67 0 1 0-.06 8.71L63.68 74a4.66 4.66 0 1 0 4.22-2.68z"/><path class="cls-5" d="M159.23 39.64q5.9 0 8.54 2.74t2.64 8.3v1.71a14 14 0 0 1-1.17 6.1 7.41 7.41 0 0 1-3.7 3.57 7.54 7.54 0 0 1 4.35 3.81 14.89 14.89 0 0 1 1.27 6.48v3.91q0 5.55-2.88 8.47t-8.57 2.91h-11.86v-48zm-3.84 6.86v12.68h2.95a4.75 4.75 0 0 0 3.33-1.1q1.2-1.1 1.2-4v-2.65a6.09 6.09 0 0 0-.93-3.77A3.5 3.5 0 0 0 159 46.5zm0 19.54v14.74h4.32a3.87 3.87 0 0 0 2.91-1q1-1 1-3.7v-4.21q0-3.36-1.13-4.59a4.87 4.87 0 0 0-3.74-1.28zm27.3-6.17H193v6.86h-10.31v14.05h13v6.86h-20.54v-48h20.57v6.86h-13z"/><path class="cls-3" d="M199.72 39.64h7.54v48h-7.54zm18.89 13.23v34.77h-6.79v-48h9.46L229 68.37V39.64h6.72v48H228z"/><path class="cls-5" d="M257.77 62.06L255 87.64h-10.32l-5.35-48h7.34l4 37.85 3.63-37.85h7.27l3.77 38.13 3.91-38.13h6.58l-5.35 48h-10zm29.29-2.19h10.35v6.86h-10.35v14.05h13v6.86h-20.54v-48h20.57v6.86h-13zm28.41-20.23q5.9 0 8.54 2.74t2.64 8.3v1.71a14 14 0 0 1-1.17 6.1 7.41 7.41 0 0 1-3.7 3.57 7.54 7.54 0 0 1 4.35 3.81 14.89 14.89 0 0 1 1.27 6.48v3.91q0 5.55-2.88 8.47T316 87.64h-11.91v-48zm-3.84 6.86v12.68h2.95a4.75 4.75 0 0 0 3.33-1.1q1.2-1.1 1.2-4v-2.65a6.09 6.09 0 0 0-.93-3.77 3.5 3.5 0 0 0-2.91-1.17zm0 19.54v14.74H316a3.87 3.87 0 0 0 2.91-1q1-1 1-3.7v-4.21q0-3.36-1.13-4.59A4.87 4.87 0 0 0 315 66z"/></g></g></svg>